<mxfile host="app.diagrams.net" agent="Mozilla/5.0 (Windows NT 10.0; Win64; x64) AppleWebKit/537.36 (KHTML, like Gecko) Chrome/137.0.0.0 Safari/537.36 Edg/137.0.0.0" version="27.1.4">
  <diagram name="Page-1" id="z2CtstA4g4CBSdeBgkWr">
    <mxGraphModel dx="2507" dy="820" grid="1" gridSize="10" guides="1" tooltips="1" connect="1" arrows="1" fold="1" page="1" pageScale="1" pageWidth="850" pageHeight="1100" math="0" shadow="0">
      <root>
        <mxCell id="0" />
        <mxCell id="1" parent="0" />
        <mxCell id="d9tAc3Sg_ybotNOLNfs5-1" value="" style="ellipse;whiteSpace=wrap;html=1;aspect=fixed;" vertex="1" parent="1">
          <mxGeometry x="-280" y="120" width="40" height="40" as="geometry" />
        </mxCell>
        <mxCell id="d9tAc3Sg_ybotNOLNfs5-2" value="" style="endArrow=none;html=1;rounded=0;entryX=0.5;entryY=1;entryDx=0;entryDy=0;" edge="1" parent="1" target="d9tAc3Sg_ybotNOLNfs5-1">
          <mxGeometry width="50" height="50" relative="1" as="geometry">
            <mxPoint x="-260" y="230" as="sourcePoint" />
            <mxPoint x="450" y="400" as="targetPoint" />
          </mxGeometry>
        </mxCell>
        <mxCell id="d9tAc3Sg_ybotNOLNfs5-3" value="" style="endArrow=none;html=1;rounded=0;" edge="1" parent="1">
          <mxGeometry width="50" height="50" relative="1" as="geometry">
            <mxPoint x="-220" y="170" as="sourcePoint" />
            <mxPoint x="-300" y="170" as="targetPoint" />
          </mxGeometry>
        </mxCell>
        <mxCell id="d9tAc3Sg_ybotNOLNfs5-4" value="" style="endArrow=none;html=1;rounded=0;" edge="1" parent="1">
          <mxGeometry width="50" height="50" relative="1" as="geometry">
            <mxPoint x="-230" y="270" as="sourcePoint" />
            <mxPoint x="-260" y="230" as="targetPoint" />
          </mxGeometry>
        </mxCell>
        <mxCell id="d9tAc3Sg_ybotNOLNfs5-5" value="" style="endArrow=none;html=1;rounded=0;" edge="1" parent="1">
          <mxGeometry width="50" height="50" relative="1" as="geometry">
            <mxPoint x="-290" y="270" as="sourcePoint" />
            <mxPoint x="-260" y="230" as="targetPoint" />
          </mxGeometry>
        </mxCell>
        <mxCell id="d9tAc3Sg_ybotNOLNfs5-6" value="&lt;font style=&quot;font-size: 18px;&quot;&gt;Khách hàng&lt;/font&gt;" style="text;html=1;align=center;verticalAlign=middle;whiteSpace=wrap;rounded=0;" vertex="1" parent="1">
          <mxGeometry x="-320" y="290" width="120" height="30" as="geometry" />
        </mxCell>
        <mxCell id="d9tAc3Sg_ybotNOLNfs5-7" value="" style="endArrow=none;dashed=1;html=1;rounded=0;entryX=0.5;entryY=1;entryDx=0;entryDy=0;" edge="1" parent="1" target="d9tAc3Sg_ybotNOLNfs5-6">
          <mxGeometry width="50" height="50" relative="1" as="geometry">
            <mxPoint x="-260" y="990" as="sourcePoint" />
            <mxPoint x="450" y="400" as="targetPoint" />
          </mxGeometry>
        </mxCell>
        <mxCell id="d9tAc3Sg_ybotNOLNfs5-8" value="&amp;lt;&amp;lt;View&amp;gt;&amp;gt;&lt;div&gt;:ProductDetailsWindow&lt;/div&gt;" style="rounded=1;whiteSpace=wrap;html=1;" vertex="1" parent="1">
          <mxGeometry x="-120" y="190" width="150" height="70" as="geometry" />
        </mxCell>
        <mxCell id="d9tAc3Sg_ybotNOLNfs5-9" value="" style="endArrow=none;dashed=1;html=1;rounded=0;entryX=0.5;entryY=1;entryDx=0;entryDy=0;" edge="1" parent="1" target="d9tAc3Sg_ybotNOLNfs5-8">
          <mxGeometry width="50" height="50" relative="1" as="geometry">
            <mxPoint x="-45" y="330" as="sourcePoint" />
            <mxPoint x="450" y="400" as="targetPoint" />
          </mxGeometry>
        </mxCell>
        <mxCell id="d9tAc3Sg_ybotNOLNfs5-10" value="" style="rounded=1;whiteSpace=wrap;html=1;" vertex="1" parent="1">
          <mxGeometry x="-60" y="320" width="30" height="310" as="geometry" />
        </mxCell>
        <mxCell id="d9tAc3Sg_ybotNOLNfs5-11" value="&amp;lt;&amp;lt;View&amp;gt;&amp;gt;&lt;div&gt;:CommentWindow&lt;/div&gt;" style="rounded=1;whiteSpace=wrap;html=1;" vertex="1" parent="1">
          <mxGeometry x="-120" y="650" width="150" height="70" as="geometry" />
        </mxCell>
        <mxCell id="d9tAc3Sg_ybotNOLNfs5-12" value="" style="endArrow=none;dashed=1;html=1;rounded=0;entryX=0.5;entryY=1;entryDx=0;entryDy=0;exitX=0.5;exitY=0;exitDx=0;exitDy=0;" edge="1" parent="1" source="d9tAc3Sg_ybotNOLNfs5-11" target="d9tAc3Sg_ybotNOLNfs5-10">
          <mxGeometry width="50" height="50" relative="1" as="geometry">
            <mxPoint x="400" y="610" as="sourcePoint" />
            <mxPoint x="450" y="560" as="targetPoint" />
          </mxGeometry>
        </mxCell>
        <mxCell id="d9tAc3Sg_ybotNOLNfs5-14" value="" style="rounded=1;whiteSpace=wrap;html=1;" vertex="1" parent="1">
          <mxGeometry x="-60" y="740" width="30" height="150" as="geometry" />
        </mxCell>
        <mxCell id="d9tAc3Sg_ybotNOLNfs5-15" value="" style="endArrow=none;dashed=1;html=1;rounded=0;entryX=0.5;entryY=1;entryDx=0;entryDy=0;exitX=0.5;exitY=0;exitDx=0;exitDy=0;" edge="1" parent="1" source="d9tAc3Sg_ybotNOLNfs5-14" target="d9tAc3Sg_ybotNOLNfs5-11">
          <mxGeometry width="50" height="50" relative="1" as="geometry">
            <mxPoint x="400" y="780" as="sourcePoint" />
            <mxPoint x="450" y="730" as="targetPoint" />
          </mxGeometry>
        </mxCell>
        <mxCell id="d9tAc3Sg_ybotNOLNfs5-16" value="" style="endArrow=none;dashed=1;html=1;rounded=0;entryX=0.5;entryY=1;entryDx=0;entryDy=0;" edge="1" parent="1" target="d9tAc3Sg_ybotNOLNfs5-14">
          <mxGeometry width="50" height="50" relative="1" as="geometry">
            <mxPoint x="-45" y="990" as="sourcePoint" />
            <mxPoint x="450" y="730" as="targetPoint" />
          </mxGeometry>
        </mxCell>
        <mxCell id="d9tAc3Sg_ybotNOLNfs5-17" value="&amp;lt;&amp;lt;Controller&amp;gt;&amp;gt;&lt;div&gt;:ProductHandler&lt;/div&gt;" style="rounded=1;whiteSpace=wrap;html=1;" vertex="1" parent="1">
          <mxGeometry x="120" y="190" width="150" height="70" as="geometry" />
        </mxCell>
        <mxCell id="d9tAc3Sg_ybotNOLNfs5-18" value="" style="endArrow=none;dashed=1;html=1;rounded=0;entryX=0.5;entryY=1;entryDx=0;entryDy=0;exitX=0.5;exitY=0;exitDx=0;exitDy=0;" edge="1" target="d9tAc3Sg_ybotNOLNfs5-17" parent="1" source="d9tAc3Sg_ybotNOLNfs5-19">
          <mxGeometry width="50" height="50" relative="1" as="geometry">
            <mxPoint x="195" y="330" as="sourcePoint" />
            <mxPoint x="690" y="400" as="targetPoint" />
          </mxGeometry>
        </mxCell>
        <mxCell id="d9tAc3Sg_ybotNOLNfs5-19" value="" style="rounded=1;whiteSpace=wrap;html=1;" vertex="1" parent="1">
          <mxGeometry x="180" y="360" width="30" height="250" as="geometry" />
        </mxCell>
        <mxCell id="d9tAc3Sg_ybotNOLNfs5-20" value="&amp;lt;&amp;lt;Controller&amp;gt;&amp;gt;&lt;div&gt;:CommentHandller&lt;/div&gt;" style="rounded=1;whiteSpace=wrap;html=1;" vertex="1" parent="1">
          <mxGeometry x="120" y="650" width="150" height="70" as="geometry" />
        </mxCell>
        <mxCell id="d9tAc3Sg_ybotNOLNfs5-21" value="" style="endArrow=none;dashed=1;html=1;rounded=0;entryX=0.5;entryY=1;entryDx=0;entryDy=0;exitX=0.5;exitY=0;exitDx=0;exitDy=0;" edge="1" source="d9tAc3Sg_ybotNOLNfs5-20" target="d9tAc3Sg_ybotNOLNfs5-19" parent="1">
          <mxGeometry width="50" height="50" relative="1" as="geometry">
            <mxPoint x="640" y="610" as="sourcePoint" />
            <mxPoint x="690" y="560" as="targetPoint" />
          </mxGeometry>
        </mxCell>
        <mxCell id="d9tAc3Sg_ybotNOLNfs5-22" value="" style="rounded=1;whiteSpace=wrap;html=1;" vertex="1" parent="1">
          <mxGeometry x="180" y="760" width="30" height="200" as="geometry" />
        </mxCell>
        <mxCell id="d9tAc3Sg_ybotNOLNfs5-23" value="" style="endArrow=none;dashed=1;html=1;rounded=0;entryX=0.5;entryY=1;entryDx=0;entryDy=0;exitX=0.5;exitY=0;exitDx=0;exitDy=0;" edge="1" source="d9tAc3Sg_ybotNOLNfs5-22" target="d9tAc3Sg_ybotNOLNfs5-20" parent="1">
          <mxGeometry width="50" height="50" relative="1" as="geometry">
            <mxPoint x="640" y="780" as="sourcePoint" />
            <mxPoint x="690" y="730" as="targetPoint" />
          </mxGeometry>
        </mxCell>
        <mxCell id="d9tAc3Sg_ybotNOLNfs5-24" value="" style="endArrow=none;dashed=1;html=1;rounded=0;entryX=0.5;entryY=1;entryDx=0;entryDy=0;" edge="1" target="d9tAc3Sg_ybotNOLNfs5-22" parent="1">
          <mxGeometry width="50" height="50" relative="1" as="geometry">
            <mxPoint x="195" y="990" as="sourcePoint" />
            <mxPoint x="690" y="730" as="targetPoint" />
          </mxGeometry>
        </mxCell>
        <mxCell id="d9tAc3Sg_ybotNOLNfs5-25" value="aC: Product" style="rounded=1;whiteSpace=wrap;html=1;" vertex="1" parent="1">
          <mxGeometry x="350" y="190" width="150" height="70" as="geometry" />
        </mxCell>
        <mxCell id="d9tAc3Sg_ybotNOLNfs5-26" value="" style="endArrow=none;dashed=1;html=1;rounded=0;entryX=0.5;entryY=1;entryDx=0;entryDy=0;exitX=0.5;exitY=0;exitDx=0;exitDy=0;" edge="1" target="d9tAc3Sg_ybotNOLNfs5-25" parent="1" source="d9tAc3Sg_ybotNOLNfs5-27">
          <mxGeometry width="50" height="50" relative="1" as="geometry">
            <mxPoint x="425" y="330" as="sourcePoint" />
            <mxPoint x="920" y="400" as="targetPoint" />
          </mxGeometry>
        </mxCell>
        <mxCell id="d9tAc3Sg_ybotNOLNfs5-27" value="" style="rounded=1;whiteSpace=wrap;html=1;" vertex="1" parent="1">
          <mxGeometry x="410" y="380" width="30" height="210" as="geometry" />
        </mxCell>
        <mxCell id="d9tAc3Sg_ybotNOLNfs5-28" value="aC: Comment" style="rounded=1;whiteSpace=wrap;html=1;" vertex="1" parent="1">
          <mxGeometry x="350" y="650" width="150" height="70" as="geometry" />
        </mxCell>
        <mxCell id="d9tAc3Sg_ybotNOLNfs5-29" value="" style="endArrow=none;dashed=1;html=1;rounded=0;entryX=0.5;entryY=1;entryDx=0;entryDy=0;exitX=0.5;exitY=0;exitDx=0;exitDy=0;" edge="1" source="d9tAc3Sg_ybotNOLNfs5-28" target="d9tAc3Sg_ybotNOLNfs5-27" parent="1">
          <mxGeometry width="50" height="50" relative="1" as="geometry">
            <mxPoint x="870" y="610" as="sourcePoint" />
            <mxPoint x="920" y="560" as="targetPoint" />
          </mxGeometry>
        </mxCell>
        <mxCell id="d9tAc3Sg_ybotNOLNfs5-30" value="" style="rounded=1;whiteSpace=wrap;html=1;" vertex="1" parent="1">
          <mxGeometry x="410" y="790" width="30" height="160" as="geometry" />
        </mxCell>
        <mxCell id="d9tAc3Sg_ybotNOLNfs5-31" value="" style="endArrow=none;dashed=1;html=1;rounded=0;entryX=0.5;entryY=1;entryDx=0;entryDy=0;exitX=0.5;exitY=0;exitDx=0;exitDy=0;" edge="1" source="d9tAc3Sg_ybotNOLNfs5-30" target="d9tAc3Sg_ybotNOLNfs5-28" parent="1">
          <mxGeometry width="50" height="50" relative="1" as="geometry">
            <mxPoint x="870" y="780" as="sourcePoint" />
            <mxPoint x="920" y="730" as="targetPoint" />
          </mxGeometry>
        </mxCell>
        <mxCell id="d9tAc3Sg_ybotNOLNfs5-32" value="" style="endArrow=none;dashed=1;html=1;rounded=0;entryX=0.5;entryY=1;entryDx=0;entryDy=0;" edge="1" target="d9tAc3Sg_ybotNOLNfs5-30" parent="1">
          <mxGeometry width="50" height="50" relative="1" as="geometry">
            <mxPoint x="425" y="990" as="sourcePoint" />
            <mxPoint x="920" y="730" as="targetPoint" />
          </mxGeometry>
        </mxCell>
        <mxCell id="d9tAc3Sg_ybotNOLNfs5-33" value="&amp;lt;&amp;lt;Dam&amp;gt;&amp;gt;&lt;div&gt;:ProductDAM&lt;/div&gt;" style="rounded=1;whiteSpace=wrap;html=1;" vertex="1" parent="1">
          <mxGeometry x="590" y="190" width="150" height="70" as="geometry" />
        </mxCell>
        <mxCell id="d9tAc3Sg_ybotNOLNfs5-34" value="" style="endArrow=none;dashed=1;html=1;rounded=0;entryX=0.5;entryY=1;entryDx=0;entryDy=0;exitX=0.5;exitY=0;exitDx=0;exitDy=0;" edge="1" target="d9tAc3Sg_ybotNOLNfs5-33" parent="1" source="d9tAc3Sg_ybotNOLNfs5-35">
          <mxGeometry width="50" height="50" relative="1" as="geometry">
            <mxPoint x="665" y="330" as="sourcePoint" />
            <mxPoint x="1160" y="400" as="targetPoint" />
          </mxGeometry>
        </mxCell>
        <mxCell id="d9tAc3Sg_ybotNOLNfs5-35" value="" style="rounded=1;whiteSpace=wrap;html=1;" vertex="1" parent="1">
          <mxGeometry x="650" y="420" width="30" height="150" as="geometry" />
        </mxCell>
        <mxCell id="d9tAc3Sg_ybotNOLNfs5-36" value="&amp;lt;&amp;lt;Dam&amp;gt;&amp;gt;&lt;div&gt;:ProductDAM&lt;/div&gt;" style="rounded=1;whiteSpace=wrap;html=1;" vertex="1" parent="1">
          <mxGeometry x="590" y="650" width="150" height="70" as="geometry" />
        </mxCell>
        <mxCell id="d9tAc3Sg_ybotNOLNfs5-37" value="" style="endArrow=none;dashed=1;html=1;rounded=0;entryX=0.5;entryY=1;entryDx=0;entryDy=0;exitX=0.5;exitY=0;exitDx=0;exitDy=0;" edge="1" source="d9tAc3Sg_ybotNOLNfs5-36" target="d9tAc3Sg_ybotNOLNfs5-35" parent="1">
          <mxGeometry width="50" height="50" relative="1" as="geometry">
            <mxPoint x="1110" y="610" as="sourcePoint" />
            <mxPoint x="1160" y="560" as="targetPoint" />
          </mxGeometry>
        </mxCell>
        <mxCell id="d9tAc3Sg_ybotNOLNfs5-38" value="" style="rounded=1;whiteSpace=wrap;html=1;" vertex="1" parent="1">
          <mxGeometry x="650" y="812.5" width="30" height="117.5" as="geometry" />
        </mxCell>
        <mxCell id="d9tAc3Sg_ybotNOLNfs5-39" value="" style="endArrow=none;dashed=1;html=1;rounded=0;entryX=0.5;entryY=1;entryDx=0;entryDy=0;exitX=0.5;exitY=0;exitDx=0;exitDy=0;" edge="1" source="d9tAc3Sg_ybotNOLNfs5-38" target="d9tAc3Sg_ybotNOLNfs5-36" parent="1">
          <mxGeometry width="50" height="50" relative="1" as="geometry">
            <mxPoint x="1110" y="780" as="sourcePoint" />
            <mxPoint x="1160" y="730" as="targetPoint" />
          </mxGeometry>
        </mxCell>
        <mxCell id="d9tAc3Sg_ybotNOLNfs5-40" value="" style="endArrow=none;dashed=1;html=1;rounded=0;entryX=0.5;entryY=1;entryDx=0;entryDy=0;" edge="1" target="d9tAc3Sg_ybotNOLNfs5-38" parent="1">
          <mxGeometry width="50" height="50" relative="1" as="geometry">
            <mxPoint x="665" y="990" as="sourcePoint" />
            <mxPoint x="1160" y="730" as="targetPoint" />
          </mxGeometry>
        </mxCell>
        <mxCell id="d9tAc3Sg_ybotNOLNfs5-41" value="DataBase" style="rounded=1;whiteSpace=wrap;html=1;" vertex="1" parent="1">
          <mxGeometry x="850" y="190" width="150" height="70" as="geometry" />
        </mxCell>
        <mxCell id="d9tAc3Sg_ybotNOLNfs5-42" value="" style="endArrow=none;dashed=1;html=1;rounded=0;entryX=0.5;entryY=1;entryDx=0;entryDy=0;exitX=0.5;exitY=0;exitDx=0;exitDy=0;" edge="1" target="d9tAc3Sg_ybotNOLNfs5-41" parent="1" source="d9tAc3Sg_ybotNOLNfs5-43">
          <mxGeometry width="50" height="50" relative="1" as="geometry">
            <mxPoint x="925" y="430" as="sourcePoint" />
            <mxPoint x="1420" y="400" as="targetPoint" />
          </mxGeometry>
        </mxCell>
        <mxCell id="d9tAc3Sg_ybotNOLNfs5-43" value="" style="rounded=1;whiteSpace=wrap;html=1;" vertex="1" parent="1">
          <mxGeometry x="910" y="440" width="30" height="110" as="geometry" />
        </mxCell>
        <mxCell id="d9tAc3Sg_ybotNOLNfs5-45" value="" style="endArrow=none;dashed=1;html=1;rounded=0;entryX=0.5;entryY=1;entryDx=0;entryDy=0;exitX=0.5;exitY=0;exitDx=0;exitDy=0;" edge="1" source="d9tAc3Sg_ybotNOLNfs5-46" target="d9tAc3Sg_ybotNOLNfs5-43" parent="1">
          <mxGeometry width="50" height="50" relative="1" as="geometry">
            <mxPoint x="925" y="720" as="sourcePoint" />
            <mxPoint x="1420" y="560" as="targetPoint" />
          </mxGeometry>
        </mxCell>
        <mxCell id="d9tAc3Sg_ybotNOLNfs5-46" value="" style="rounded=1;whiteSpace=wrap;html=1;" vertex="1" parent="1">
          <mxGeometry x="910" y="830" width="30" height="90" as="geometry" />
        </mxCell>
        <mxCell id="d9tAc3Sg_ybotNOLNfs5-48" value="" style="endArrow=none;dashed=1;html=1;rounded=0;entryX=0.5;entryY=1;entryDx=0;entryDy=0;" edge="1" target="d9tAc3Sg_ybotNOLNfs5-46" parent="1">
          <mxGeometry width="50" height="50" relative="1" as="geometry">
            <mxPoint x="925" y="990" as="sourcePoint" />
            <mxPoint x="1420" y="730" as="targetPoint" />
          </mxGeometry>
        </mxCell>
        <mxCell id="d9tAc3Sg_ybotNOLNfs5-49" value="" style="endArrow=classic;html=1;rounded=0;entryX=0.067;entryY=0.114;entryDx=0;entryDy=0;entryPerimeter=0;" edge="1" parent="1" target="d9tAc3Sg_ybotNOLNfs5-10">
          <mxGeometry width="50" height="50" relative="1" as="geometry">
            <mxPoint x="-260" y="355" as="sourcePoint" />
            <mxPoint x="450" y="410" as="targetPoint" />
          </mxGeometry>
        </mxCell>
        <mxCell id="d9tAc3Sg_ybotNOLNfs5-50" value="Truy cập vào sản phẩm" style="text;html=1;align=center;verticalAlign=middle;whiteSpace=wrap;rounded=0;" vertex="1" parent="1">
          <mxGeometry x="-260" y="320" width="180" height="30" as="geometry" />
        </mxCell>
        <mxCell id="d9tAc3Sg_ybotNOLNfs5-51" value="" style="endArrow=classic;html=1;rounded=0;entryX=0.067;entryY=0.114;entryDx=0;entryDy=0;entryPerimeter=0;" edge="1" parent="1">
          <mxGeometry width="50" height="50" relative="1" as="geometry">
            <mxPoint x="-30" y="382" as="sourcePoint" />
            <mxPoint x="180" y="382" as="targetPoint" />
          </mxGeometry>
        </mxCell>
        <mxCell id="d9tAc3Sg_ybotNOLNfs5-52" value="Gửi yêu cầu lấy thông tin sản phẩm và bình luận" style="text;html=1;align=center;verticalAlign=middle;whiteSpace=wrap;rounded=0;" vertex="1" parent="1">
          <mxGeometry x="-30" y="350" width="200" height="30" as="geometry" />
        </mxCell>
        <mxCell id="d9tAc3Sg_ybotNOLNfs5-53" value="" style="endArrow=classic;html=1;rounded=0;entryX=0.067;entryY=0.114;entryDx=0;entryDy=0;entryPerimeter=0;" edge="1" parent="1">
          <mxGeometry width="50" height="50" relative="1" as="geometry">
            <mxPoint x="210" y="400" as="sourcePoint" />
            <mxPoint x="412" y="402" as="targetPoint" />
          </mxGeometry>
        </mxCell>
        <mxCell id="d9tAc3Sg_ybotNOLNfs5-54" value="ac= Product&lt;div&gt;(id, tên, số lượng, comment)&lt;/div&gt;" style="text;html=1;align=center;verticalAlign=middle;whiteSpace=wrap;rounded=0;" vertex="1" parent="1">
          <mxGeometry x="210" y="370" width="180" height="30" as="geometry" />
        </mxCell>
        <mxCell id="d9tAc3Sg_ybotNOLNfs5-55" value="" style="endArrow=classic;html=1;rounded=0;entryX=0.067;entryY=0.114;entryDx=0;entryDy=0;entryPerimeter=0;exitX=0.828;exitY=0.282;exitDx=0;exitDy=0;exitPerimeter=0;" edge="1" parent="1" source="d9tAc3Sg_ybotNOLNfs5-27">
          <mxGeometry width="50" height="50" relative="1" as="geometry">
            <mxPoint x="448" y="440" as="sourcePoint" />
            <mxPoint x="650" y="442" as="targetPoint" />
          </mxGeometry>
        </mxCell>
        <mxCell id="d9tAc3Sg_ybotNOLNfs5-56" value="ReadDB(ac)" style="text;html=1;align=center;verticalAlign=middle;whiteSpace=wrap;rounded=0;" vertex="1" parent="1">
          <mxGeometry x="450" y="410" width="178" height="30" as="geometry" />
        </mxCell>
        <mxCell id="d9tAc3Sg_ybotNOLNfs5-57" value="" style="endArrow=classic;html=1;rounded=0;entryX=0.067;entryY=0.114;entryDx=0;entryDy=0;entryPerimeter=0;" edge="1" parent="1">
          <mxGeometry width="50" height="50" relative="1" as="geometry">
            <mxPoint x="680" y="470" as="sourcePoint" />
            <mxPoint x="910" y="472" as="targetPoint" />
          </mxGeometry>
        </mxCell>
        <mxCell id="d9tAc3Sg_ybotNOLNfs5-58" value="Đọc thông tin ac trong csdl" style="text;html=1;align=center;verticalAlign=middle;whiteSpace=wrap;rounded=0;" vertex="1" parent="1">
          <mxGeometry x="690" y="440" width="198" height="30" as="geometry" />
        </mxCell>
        <mxCell id="d9tAc3Sg_ybotNOLNfs5-60" value="" style="triangle;whiteSpace=wrap;html=1;direction=west;" vertex="1" parent="1">
          <mxGeometry x="680" y="510" width="10" height="20" as="geometry" />
        </mxCell>
        <mxCell id="d9tAc3Sg_ybotNOLNfs5-61" value="" style="endArrow=none;dashed=1;html=1;rounded=0;entryX=0;entryY=0.5;entryDx=0;entryDy=0;" edge="1" parent="1" target="d9tAc3Sg_ybotNOLNfs5-60">
          <mxGeometry width="50" height="50" relative="1" as="geometry">
            <mxPoint x="910" y="520" as="sourcePoint" />
            <mxPoint x="460" y="500" as="targetPoint" />
          </mxGeometry>
        </mxCell>
        <mxCell id="d9tAc3Sg_ybotNOLNfs5-62" value="Trả về thông tin ac" style="text;html=1;align=center;verticalAlign=middle;whiteSpace=wrap;rounded=0;" vertex="1" parent="1">
          <mxGeometry x="690" y="520" width="210" height="30" as="geometry" />
        </mxCell>
        <mxCell id="d9tAc3Sg_ybotNOLNfs5-63" value="" style="triangle;whiteSpace=wrap;html=1;direction=west;" vertex="1" parent="1">
          <mxGeometry x="440" y="540" width="10" height="20" as="geometry" />
        </mxCell>
        <mxCell id="d9tAc3Sg_ybotNOLNfs5-64" value="" style="endArrow=none;dashed=1;html=1;rounded=0;entryX=0;entryY=0.5;entryDx=0;entryDy=0;" edge="1" target="d9tAc3Sg_ybotNOLNfs5-63" parent="1">
          <mxGeometry width="50" height="50" relative="1" as="geometry">
            <mxPoint x="650" y="550" as="sourcePoint" />
            <mxPoint x="220" y="530" as="targetPoint" />
          </mxGeometry>
        </mxCell>
        <mxCell id="d9tAc3Sg_ybotNOLNfs5-65" value="Thông tin ac" style="text;html=1;align=center;verticalAlign=middle;whiteSpace=wrap;rounded=0;" vertex="1" parent="1">
          <mxGeometry x="450" y="550" width="190" height="30" as="geometry" />
        </mxCell>
        <mxCell id="d9tAc3Sg_ybotNOLNfs5-67" value="" style="triangle;whiteSpace=wrap;html=1;direction=west;" vertex="1" parent="1">
          <mxGeometry x="210" y="570" width="10" height="20" as="geometry" />
        </mxCell>
        <mxCell id="d9tAc3Sg_ybotNOLNfs5-68" value="" style="endArrow=none;dashed=1;html=1;rounded=0;entryX=0;entryY=0.5;entryDx=0;entryDy=0;" edge="1" target="d9tAc3Sg_ybotNOLNfs5-67" parent="1">
          <mxGeometry width="50" height="50" relative="1" as="geometry">
            <mxPoint x="410" y="580" as="sourcePoint" />
            <mxPoint x="-10" y="560" as="targetPoint" />
          </mxGeometry>
        </mxCell>
        <mxCell id="d9tAc3Sg_ybotNOLNfs5-69" value="Trả về thông tin sản phẩm" style="text;html=1;align=center;verticalAlign=middle;whiteSpace=wrap;rounded=0;" vertex="1" parent="1">
          <mxGeometry x="220" y="580" width="170" height="30" as="geometry" />
        </mxCell>
        <mxCell id="d9tAc3Sg_ybotNOLNfs5-70" value="" style="triangle;whiteSpace=wrap;html=1;direction=west;" vertex="1" parent="1">
          <mxGeometry x="-30" y="590" width="10" height="20" as="geometry" />
        </mxCell>
        <mxCell id="d9tAc3Sg_ybotNOLNfs5-71" value="" style="endArrow=none;dashed=1;html=1;rounded=0;entryX=0;entryY=0.5;entryDx=0;entryDy=0;" edge="1" target="d9tAc3Sg_ybotNOLNfs5-70" parent="1">
          <mxGeometry width="50" height="50" relative="1" as="geometry">
            <mxPoint x="180" y="600" as="sourcePoint" />
            <mxPoint x="-250" y="580" as="targetPoint" />
          </mxGeometry>
        </mxCell>
        <mxCell id="d9tAc3Sg_ybotNOLNfs5-72" value="Thông tin sản phẩm" style="text;html=1;align=center;verticalAlign=middle;whiteSpace=wrap;rounded=0;" vertex="1" parent="1">
          <mxGeometry x="-20" y="600" width="190" height="30" as="geometry" />
        </mxCell>
        <mxCell id="d9tAc3Sg_ybotNOLNfs5-74" value="" style="endArrow=classic;html=1;rounded=0;" edge="1" parent="1">
          <mxGeometry width="50" height="50" relative="1" as="geometry">
            <mxPoint x="-260" y="770" as="sourcePoint" />
            <mxPoint x="-60" y="770" as="targetPoint" />
          </mxGeometry>
        </mxCell>
        <mxCell id="d9tAc3Sg_ybotNOLNfs5-75" value="Bình luận sản phẩm" style="text;html=1;align=center;verticalAlign=middle;whiteSpace=wrap;rounded=0;" vertex="1" parent="1">
          <mxGeometry x="-260" y="740" width="190" height="30" as="geometry" />
        </mxCell>
        <mxCell id="d9tAc3Sg_ybotNOLNfs5-76" value="" style="endArrow=classic;html=1;rounded=0;exitX=0.967;exitY=0.4;exitDx=0;exitDy=0;exitPerimeter=0;" edge="1" parent="1" source="d9tAc3Sg_ybotNOLNfs5-14">
          <mxGeometry width="50" height="50" relative="1" as="geometry">
            <mxPoint x="-20" y="800" as="sourcePoint" />
            <mxPoint x="180" y="800" as="targetPoint" />
          </mxGeometry>
        </mxCell>
        <mxCell id="d9tAc3Sg_ybotNOLNfs5-77" value="Yêu cầu bình luận" style="text;html=1;align=center;verticalAlign=middle;whiteSpace=wrap;rounded=0;" vertex="1" parent="1">
          <mxGeometry x="-20" y="770" width="190" height="30" as="geometry" />
        </mxCell>
        <mxCell id="d9tAc3Sg_ybotNOLNfs5-81" value="" style="endArrow=classic;html=1;rounded=0;" edge="1" parent="1">
          <mxGeometry width="50" height="50" relative="1" as="geometry">
            <mxPoint x="210" y="820" as="sourcePoint" />
            <mxPoint x="410" y="820" as="targetPoint" />
          </mxGeometry>
        </mxCell>
        <mxCell id="d9tAc3Sg_ybotNOLNfs5-82" value="ac = Comment (Text)" style="text;html=1;align=center;verticalAlign=middle;whiteSpace=wrap;rounded=0;" vertex="1" parent="1">
          <mxGeometry x="210" y="790" width="190" height="30" as="geometry" />
        </mxCell>
        <mxCell id="d9tAc3Sg_ybotNOLNfs5-83" value="" style="endArrow=classic;html=1;rounded=0;exitX=1.033;exitY=0.333;exitDx=0;exitDy=0;exitPerimeter=0;" edge="1" parent="1" source="d9tAc3Sg_ybotNOLNfs5-30">
          <mxGeometry width="50" height="50" relative="1" as="geometry">
            <mxPoint x="450" y="842.5" as="sourcePoint" />
            <mxPoint x="650" y="842.5" as="targetPoint" />
          </mxGeometry>
        </mxCell>
        <mxCell id="d9tAc3Sg_ybotNOLNfs5-84" value="WriteDB(ac)" style="text;html=1;align=center;verticalAlign=middle;whiteSpace=wrap;rounded=0;" vertex="1" parent="1">
          <mxGeometry x="450" y="812.5" width="190" height="30" as="geometry" />
        </mxCell>
        <mxCell id="d9tAc3Sg_ybotNOLNfs5-85" value="" style="endArrow=classic;html=1;rounded=0;exitX=1.033;exitY=0.413;exitDx=0;exitDy=0;exitPerimeter=0;" edge="1" parent="1" source="d9tAc3Sg_ybotNOLNfs5-38">
          <mxGeometry width="50" height="50" relative="1" as="geometry">
            <mxPoint x="710" y="860" as="sourcePoint" />
            <mxPoint x="910" y="860" as="targetPoint" />
          </mxGeometry>
        </mxCell>
        <mxCell id="d9tAc3Sg_ybotNOLNfs5-86" value="Ghi thông tin ac trong csdl" style="text;html=1;align=center;verticalAlign=middle;whiteSpace=wrap;rounded=0;" vertex="1" parent="1">
          <mxGeometry x="690" y="830" width="210" height="30" as="geometry" />
        </mxCell>
        <mxCell id="d9tAc3Sg_ybotNOLNfs5-87" value="" style="triangle;whiteSpace=wrap;html=1;direction=west;" vertex="1" parent="1">
          <mxGeometry x="680" y="890" width="10" height="20" as="geometry" />
        </mxCell>
        <mxCell id="d9tAc3Sg_ybotNOLNfs5-89" value="" style="endArrow=none;dashed=1;html=1;rounded=0;exitX=0;exitY=0.5;exitDx=0;exitDy=0;" edge="1" parent="1" source="d9tAc3Sg_ybotNOLNfs5-87">
          <mxGeometry width="50" height="50" relative="1" as="geometry">
            <mxPoint x="380" y="710" as="sourcePoint" />
            <mxPoint x="910" y="900" as="targetPoint" />
          </mxGeometry>
        </mxCell>
        <mxCell id="d9tAc3Sg_ybotNOLNfs5-90" value="Xác nhận" style="text;html=1;align=center;verticalAlign=middle;whiteSpace=wrap;rounded=0;" vertex="1" parent="1">
          <mxGeometry x="690" y="900" width="210" height="30" as="geometry" />
        </mxCell>
        <mxCell id="d9tAc3Sg_ybotNOLNfs5-91" value="" style="triangle;whiteSpace=wrap;html=1;direction=west;" vertex="1" parent="1">
          <mxGeometry x="440" y="910" width="10" height="20" as="geometry" />
        </mxCell>
        <mxCell id="d9tAc3Sg_ybotNOLNfs5-92" value="" style="endArrow=none;dashed=1;html=1;rounded=0;exitX=0;exitY=0.5;exitDx=0;exitDy=0;entryX=0.948;entryY=-0.033;entryDx=0;entryDy=0;entryPerimeter=0;" edge="1" source="d9tAc3Sg_ybotNOLNfs5-91" parent="1" target="d9tAc3Sg_ybotNOLNfs5-93">
          <mxGeometry width="50" height="50" relative="1" as="geometry">
            <mxPoint x="140" y="730" as="sourcePoint" />
            <mxPoint x="670" y="920" as="targetPoint" />
          </mxGeometry>
        </mxCell>
        <mxCell id="d9tAc3Sg_ybotNOLNfs5-93" value="Thành công" style="text;html=1;align=center;verticalAlign=middle;whiteSpace=wrap;rounded=0;" vertex="1" parent="1">
          <mxGeometry x="450" y="920" width="210" height="30" as="geometry" />
        </mxCell>
        <mxCell id="d9tAc3Sg_ybotNOLNfs5-94" value="" style="triangle;whiteSpace=wrap;html=1;direction=west;" vertex="1" parent="1">
          <mxGeometry x="210" y="927.5" width="10" height="20" as="geometry" />
        </mxCell>
        <mxCell id="d9tAc3Sg_ybotNOLNfs5-95" value="" style="endArrow=none;dashed=1;html=1;rounded=0;exitX=0;exitY=0.5;exitDx=0;exitDy=0;entryX=-0.044;entryY=0.925;entryDx=0;entryDy=0;entryPerimeter=0;" edge="1" source="d9tAc3Sg_ybotNOLNfs5-94" parent="1" target="d9tAc3Sg_ybotNOLNfs5-30">
          <mxGeometry width="50" height="50" relative="1" as="geometry">
            <mxPoint x="-90" y="747.5" as="sourcePoint" />
            <mxPoint x="440" y="937.5" as="targetPoint" />
          </mxGeometry>
        </mxCell>
        <mxCell id="d9tAc3Sg_ybotNOLNfs5-96" value="Xác nhận" style="text;html=1;align=center;verticalAlign=middle;whiteSpace=wrap;rounded=0;" vertex="1" parent="1">
          <mxGeometry x="220" y="937.5" width="180" height="30" as="geometry" />
        </mxCell>
      </root>
    </mxGraphModel>
  </diagram>
</mxfile>
